# xmcd
#
# Track frame offsets: 
#        180
#        13992
#        27894
#        39056
#        52789
#        76228
#        92865
#        104665
#        113670
#        124626
#        140456
#        152409
#        170225
#        183121
#        195749
#
# Disc length: 2799 seconds
#
# Revision: 0
# Processed by: cddbd v1.4PL0 Copyright (c) Steve Scherf et al.
# Submitted via: ExactAudioCopy v0.90b4
#
DISCID=b70aed0f
DTITLE=Sweetwater Reunion - Oliver's Quiet
DYEAR=1995
DGENRE=Bluegrass
TTITLE0=(Who'll Be The) Next One In Your Life
TTITLE1=Ready For The Times
TTITLE2=McCarter's Tennessee
TTITLE3=Cold Bare Feet
TTITLE4=Oliver's Quiet
TTITLE5=Juniata
TTITLE6=Jesus, I Am Resting, Resting
TTITLE7=Sawdust
TTITLE8=There's No Use In Singing The Blues
TTITLE9=Second Chance
TTITLE10=Grizzlies On the Kenai
TTITLE11=What's A Farm To Do
TTITLE12=Strange Fire
TTITLE13=Woodpecker On The Porch
TTITLE14=(I Miss Your) Gentle Touch
EXTD=
EXTT0=
EXTT1=
EXTT2=
EXTT3=
EXTT4=
EXTT5=
EXTT6=
EXTT7=
EXTT8=
EXTT9=
EXTT10=
EXTT11=
EXTT12=
EXTT13=
EXTT14=
PLAYORDER=
